<svg width="100" height="100" viewBox="0 0 100 100" fill="none" xmlns="http://www.w3.org/2000/svg">
<rect width="100" height="100" fill="#3EDBB4"/>
<path d="M9.744 68V34.16H24.528C28.24 34.16 31.104 35.04 33.12 36.8C35.168 38.56 36.192 41.008 36.192 44.144C36.192 46.224 35.728 48 34.8 49.472C33.904 50.944 32.608 52.08 30.912 52.88C29.216 53.648 27.216 54.032 24.912 54.032L25.584 53.12H27.216C28.56 53.12 29.76 53.472 30.816 54.176C31.872 54.88 32.736 55.952 33.408 57.392L38.352 68H31.536L26.544 57.008C26.096 55.888 25.408 55.152 24.48 54.8C23.584 54.448 22.496 54.272 21.216 54.272H15.936V68H9.744ZM15.936 49.712H23.52C25.696 49.712 27.344 49.264 28.464 48.368C29.616 47.44 30.192 46.096 30.192 44.336C30.192 42.576 29.616 41.248 28.464 40.352C27.344 39.456 25.696 39.008 23.52 39.008H15.936V49.712ZM43.4951 68V34.16H48.9191L61.3511 62.144H59.8631L72.2951 34.16H77.6711V68H72.0551V42.896H73.7831L62.4071 68H58.7111L47.3351 42.896H49.1111V68H43.4951ZM84.0608 68V61.328H90.7808V68H84.0608Z" fill="white"/>
</svg>
